<svg id="a48794c8-b754-431b-826d-1f5e4cf7bac8" data-name="Capa 1" xmlns="http://www.w3.org/2000/svg" viewBox="0 0 204.94 204.94"><g id="a5993a37-2993-4000-803e-86471482cdb1" data-name="Capa 4"><path d="M193.77,95.17q-43.05,23.1-86.1,46.3c-4.1,2.2-8.1,4.4-12.2,6.6.4,3.8.7,7.7,1.1,11.5l7.5-34.5c.3-1.3,1.2-11.6-1.1-11.5-26.7,1.3-53.5,2.7-80.2,4l-11.5.6c.5,2.2,1,4.5,1.5,6.8V79c-.5,2.2-1,4.5-1.5,6.8l82,3.9,11.6.6c2.3.1,1.3-10.2,1.1-11.5-2.5-11.5-5-23.1-7.5-34.6-.4,3.8-.7,7.7-1.1,11.5q42.3,23.25,84.5,46.5c4,2.2,8,4.4,11.9,6.6,1,.6,1.5-6.3,1.5-6.8,0-1.7.3-5.8-1.5-6.8q-42.3-23.25-84.5-46.5c-4-2.2-8-4.4-11.9-6.6-1.4-.8-1.3,10.5-1.1,11.5,2.5,11.5,5,23.1,7.5,34.6.3-3.8.7-7.7,1.1-11.5l-82-3.9-11.6-.6c-1.5-.1-1.5,6.2-1.5,6.8v46c0,.8,0,6.8,1.5,6.8,26.7-1.3,53.5-2.7,80.2-4l11.5-.6c-.4-3.8-.7-7.7-1.1-11.5l-7.5,34.5c-.2,1.1-.2,12.2,1.1,11.5q43.05-23.1,86.1-46.3c4.1-2.2,8.1-4.4,12.2-6.6C197,107,194,95.07,193.77,95.17Z"/></g></svg>