<svg id="af8e2dbe-2454-44bb-8fec-affb6c125aeb" data-name="Capa 1" xmlns="http://www.w3.org/2000/svg" viewBox="0 0 204.94 204.94"><g id="b4f6b8ab-68d8-4009-bee3-211b12546a4b" data-name="Capa 4"><path d="M104.61,17.79q23.1,43.05,46.3,86.1c2.2,4.1,4.4,8.1,6.6,12.2.1-4.4.3-8.8.4-13.3l-34.5-7.5c-1.6-.4-1.5,8.2-1.4,8.5,1.3,26.7,2.7,53.5,4,80.2.2,3.8.4,7.6.6,11.5.5-2.8,1-5.7,1.4-8.5H82c.5,2.8,1,5.7,1.4,8.5,1.3-27.3,2.6-54.7,3.9-82,.2-3.9.4-7.7.6-11.6,0-.4.2-8.9-1.4-8.5l-34.6,7.5c.1,4.4.3,8.8.4,13.3q23.25-42.3,46.5-84.5c2.2-4,4.4-8,6.6-11.9,1.3-2.4,1.2-5.7,1-8.3,0-.5-1.1-6.1-1.8-4.7q-23.25,42.3-46.5,84.5c-2.2,4-4.4,8-6.6,11.9-.7,1.3-1.9,13.8.4,13.3l34.6-7.5c-.5-2.8-1-5.7-1.4-8.5-1.3,27.3-2.6,54.7-3.9,82-.2,3.9-.4,7.7-.6,11.6,0,.7-.4,8.5,1.4,8.5h46c1.9,0,1.5-7.9,1.4-8.5-1.3-26.7-2.7-53.5-4-80.2-.2-3.8-.4-7.6-.6-11.5-.5,2.8-1,5.7-1.4,8.5l34.5,7.5c2.3.5,1.1-12,.4-13.3Q135.21,60,112,17c-2.2-4.1-4.4-8.1-6.6-12.2-.9-1.6-1.8,4.5-1.8,4.7C103.41,12.19,103.31,15.39,104.61,17.79Z"/></g></svg>